<mxfile host="app.diagrams.net" modified="2023-05-22T12:42:53.222Z" agent="Mozilla/5.0 (Macintosh; Intel Mac OS X 10_15_7) AppleWebKit/537.36 (KHTML, like Gecko) Chrome/113.0.0.0 Safari/537.36" etag="MwRICQ-YCAMp4yoizC8s" version="21.3.2" type="device">
  <diagram name="Repositories" id="9SXS17ErQpo5hBMLJkGF">
    <mxGraphModel dx="1128" dy="1272" grid="1" gridSize="10" guides="1" tooltips="1" connect="1" arrows="1" fold="1" page="1" pageScale="1" pageWidth="850" pageHeight="1100" math="0" shadow="0">
      <root>
        <mxCell id="0" />
        <mxCell id="1" parent="0" />
        <mxCell id="8vSlE9uvd0-ZZ95YrJ3Z-1" value="" style="strokeWidth=1;shadow=0;dashed=0;align=center;html=1;shape=mxgraph.mockup.containers.browserWindow;rSize=0;strokeColor=#666666;strokeColor2=#008cff;strokeColor3=#c4c4c4;mainText=,;recursiveResize=0;" vertex="1" parent="1">
          <mxGeometry x="70" y="50" width="1110" height="940" as="geometry" />
        </mxCell>
        <mxCell id="8vSlE9uvd0-ZZ95YrJ3Z-2" value="Repositories | Momentum" style="strokeWidth=1;shadow=0;dashed=0;align=center;html=1;shape=mxgraph.mockup.containers.anchor;fontSize=17;fontColor=#666666;align=left;whiteSpace=wrap;" vertex="1" parent="8vSlE9uvd0-ZZ95YrJ3Z-1">
          <mxGeometry x="60" y="12" width="110" height="26" as="geometry" />
        </mxCell>
        <mxCell id="8vSlE9uvd0-ZZ95YrJ3Z-3" value="https://momentum.natron.io/repositories" style="strokeWidth=1;shadow=0;dashed=0;align=center;html=1;shape=mxgraph.mockup.containers.anchor;rSize=0;fontSize=17;fontColor=#666666;align=left;" vertex="1" parent="8vSlE9uvd0-ZZ95YrJ3Z-1">
          <mxGeometry x="130" y="60" width="310" height="26" as="geometry" />
        </mxCell>
        <mxCell id="8vSlE9uvd0-ZZ95YrJ3Z-8" value="" style="verticalLabelPosition=bottom;shadow=0;dashed=0;align=center;html=1;verticalAlign=top;strokeWidth=1;shape=mxgraph.mockup.markup.line;strokeColor=#999999;" vertex="1" parent="8vSlE9uvd0-ZZ95YrJ3Z-1">
          <mxGeometry y="200" width="1110" height="20" as="geometry" />
        </mxCell>
        <mxCell id="8vSlE9uvd0-ZZ95YrJ3Z-4" value="&lt;font style=&quot;font-size: 24px;&quot;&gt;NAV&lt;/font&gt;" style="rounded=1;whiteSpace=wrap;html=1;fillStyle=auto;" vertex="1" parent="8vSlE9uvd0-ZZ95YrJ3Z-1">
          <mxGeometry x="60" y="140" width="170" height="760" as="geometry" />
        </mxCell>
        <mxCell id="8vSlE9uvd0-ZZ95YrJ3Z-10" value="&lt;font style=&quot;font-size: 24px;&quot;&gt;Repositories&lt;/font&gt;" style="text;html=1;strokeColor=none;fillColor=none;align=center;verticalAlign=middle;whiteSpace=wrap;rounded=0;" vertex="1" parent="8vSlE9uvd0-ZZ95YrJ3Z-1">
          <mxGeometry x="255" y="160" width="125" height="30" as="geometry" />
        </mxCell>
        <mxCell id="8vSlE9uvd0-ZZ95YrJ3Z-11" value="Add Repository" style="strokeWidth=1;shadow=0;dashed=0;align=center;html=1;shape=mxgraph.mockup.buttons.button;strokeColor=#666666;fontColor=#ffffff;mainText=;buttonStyle=round;fontSize=17;fontStyle=1;fillColor=#008cff;whiteSpace=wrap;" vertex="1" parent="8vSlE9uvd0-ZZ95YrJ3Z-1">
          <mxGeometry x="930" y="240" width="150" height="50" as="geometry" />
        </mxCell>
        <mxCell id="8vSlE9uvd0-ZZ95YrJ3Z-12" value="Table / Grid View Toggle" style="rounded=0;whiteSpace=wrap;html=1;" vertex="1" parent="8vSlE9uvd0-ZZ95YrJ3Z-1">
          <mxGeometry x="255" y="240" width="120" height="50" as="geometry" />
        </mxCell>
        <mxCell id="8vSlE9uvd0-ZZ95YrJ3Z-13" value="" style="rounded=1;whiteSpace=wrap;html=1;" vertex="1" parent="8vSlE9uvd0-ZZ95YrJ3Z-1">
          <mxGeometry x="255" y="340" width="835" height="100" as="geometry" />
        </mxCell>
        <mxCell id="8vSlE9uvd0-ZZ95YrJ3Z-14" value="&amp;lt;name&amp;gt;" style="text;html=1;strokeColor=none;fillColor=none;align=center;verticalAlign=middle;whiteSpace=wrap;rounded=0;" vertex="1" parent="8vSlE9uvd0-ZZ95YrJ3Z-1">
          <mxGeometry x="642.5" y="375" width="60" height="30" as="geometry" />
        </mxCell>
        <mxCell id="8vSlE9uvd0-ZZ95YrJ3Z-15" value="" style="endArrow=none;html=1;rounded=0;exitX=0;exitY=0.25;exitDx=0;exitDy=0;entryX=1;entryY=0.25;entryDx=0;entryDy=0;" edge="1" parent="8vSlE9uvd0-ZZ95YrJ3Z-1" source="8vSlE9uvd0-ZZ95YrJ3Z-13" target="8vSlE9uvd0-ZZ95YrJ3Z-13">
          <mxGeometry width="50" height="50" relative="1" as="geometry">
            <mxPoint x="570" y="460" as="sourcePoint" />
            <mxPoint x="620" y="410" as="targetPoint" />
          </mxGeometry>
        </mxCell>
        <mxCell id="8vSlE9uvd0-ZZ95YrJ3Z-16" value="&amp;lt;status: Synchronized | Synchronizing | Synchronize&amp;gt;" style="text;html=1;strokeColor=none;fillColor=none;align=center;verticalAlign=middle;whiteSpace=wrap;rounded=0;" vertex="1" parent="8vSlE9uvd0-ZZ95YrJ3Z-1">
          <mxGeometry x="518.75" y="340" width="307.5" height="30" as="geometry" />
        </mxCell>
        <mxCell id="8vSlE9uvd0-ZZ95YrJ3Z-29" value="&amp;lt;lock-icon&amp;gt; &amp;lt;?Repository Authentication Link&amp;gt;" style="text;html=1;strokeColor=none;fillColor=none;align=center;verticalAlign=middle;whiteSpace=wrap;rounded=0;" vertex="1" parent="8vSlE9uvd0-ZZ95YrJ3Z-1">
          <mxGeometry x="538.75" y="405" width="267.5" height="30" as="geometry" />
        </mxCell>
        <mxCell id="8vSlE9uvd0-ZZ95YrJ3Z-30" value="Manage Repo Auth" style="strokeWidth=1;shadow=0;dashed=0;align=center;html=1;shape=mxgraph.mockup.buttons.button;strokeColor=#666666;fontColor=#ffffff;mainText=;buttonStyle=round;fontSize=17;fontStyle=1;fillColor=#008cff;whiteSpace=wrap;" vertex="1" parent="8vSlE9uvd0-ZZ95YrJ3Z-1">
          <mxGeometry x="750" y="240" width="150" height="50" as="geometry" />
        </mxCell>
        <mxCell id="8vSlE9uvd0-ZZ95YrJ3Z-31" value="" style="strokeWidth=1;shadow=0;dashed=0;align=center;html=1;shape=mxgraph.mockup.containers.browserWindow;rSize=0;strokeColor=#666666;strokeColor2=#008cff;strokeColor3=#c4c4c4;mainText=,;recursiveResize=0;" vertex="1" parent="1">
          <mxGeometry x="70" y="1060" width="1110" height="940" as="geometry" />
        </mxCell>
        <mxCell id="8vSlE9uvd0-ZZ95YrJ3Z-32" value="Repo1 | Momentum" style="strokeWidth=1;shadow=0;dashed=0;align=center;html=1;shape=mxgraph.mockup.containers.anchor;fontSize=17;fontColor=#666666;align=left;whiteSpace=wrap;" vertex="1" parent="8vSlE9uvd0-ZZ95YrJ3Z-31">
          <mxGeometry x="60" y="12" width="110" height="26" as="geometry" />
        </mxCell>
        <mxCell id="8vSlE9uvd0-ZZ95YrJ3Z-33" value="https://momentum.natron.io/repositories/1" style="strokeWidth=1;shadow=0;dashed=0;align=center;html=1;shape=mxgraph.mockup.containers.anchor;rSize=0;fontSize=17;fontColor=#666666;align=left;" vertex="1" parent="8vSlE9uvd0-ZZ95YrJ3Z-31">
          <mxGeometry x="130" y="60" width="310" height="26" as="geometry" />
        </mxCell>
        <mxCell id="8vSlE9uvd0-ZZ95YrJ3Z-34" value="" style="verticalLabelPosition=bottom;shadow=0;dashed=0;align=center;html=1;verticalAlign=top;strokeWidth=1;shape=mxgraph.mockup.markup.line;strokeColor=#999999;" vertex="1" parent="8vSlE9uvd0-ZZ95YrJ3Z-31">
          <mxGeometry y="200" width="1110" height="20" as="geometry" />
        </mxCell>
        <mxCell id="8vSlE9uvd0-ZZ95YrJ3Z-35" value="&lt;font style=&quot;font-size: 24px;&quot;&gt;NAV&lt;/font&gt;" style="rounded=1;whiteSpace=wrap;html=1;fillStyle=auto;" vertex="1" parent="8vSlE9uvd0-ZZ95YrJ3Z-31">
          <mxGeometry x="60" y="140" width="170" height="760" as="geometry" />
        </mxCell>
        <mxCell id="8vSlE9uvd0-ZZ95YrJ3Z-36" value="&lt;font style=&quot;font-size: 24px;&quot;&gt;Repositories&lt;/font&gt;" style="text;html=1;strokeColor=none;fillColor=none;align=center;verticalAlign=middle;whiteSpace=wrap;rounded=0;" vertex="1" parent="8vSlE9uvd0-ZZ95YrJ3Z-31">
          <mxGeometry x="255" y="160" width="125" height="30" as="geometry" />
        </mxCell>
        <mxCell id="8vSlE9uvd0-ZZ95YrJ3Z-47" value="&lt;font style=&quot;font-size: 24px;&quot;&gt;Repo1&lt;/font&gt;" style="text;html=1;strokeColor=none;fillColor=none;align=center;verticalAlign=middle;whiteSpace=wrap;rounded=0;" vertex="1" parent="8vSlE9uvd0-ZZ95YrJ3Z-31">
          <mxGeometry x="255" y="230" width="60" height="30" as="geometry" />
        </mxCell>
      </root>
    </mxGraphModel>
  </diagram>
</mxfile>
